#!OML:ASF Y:\EmotionMaleHayes\Project 1\Capture day 1\Session 1\Male1.ASF
:FULLY-SPECIFIED
:DEGREES
976
root 24.1871 16.9333 16.8331 244.533 -74.4332 -246.277
lowerback 9.75068 -1.58433 -11.6434
upperback 4.11074 -3.3989 -1.70799
thorax -0.565443 -1.9167 5.05915
lowerneck -23.1045 -4.51738 -2.20035
upperneck 26.4734 -7.25031 3.93829
head 12.9369 -2.98616 0.570724
rclavicle 3.37934e-014 1.35174e-014
rhumerus -62.1965 21.0457 -90.9562
rradius 43.527
rwrist -7.13932
rhand -11.6604 -31.6684
rfingers 7.12502
rthumb 14.3842 -61.15
lclavicle 3.37934e-014 1.35174e-014
lhumerus 6.69009 -30.5063 73.8518
lradius 49.9824
lwrist 1.19559
lhand -30.3653 -23.8248
lfingers 7.12502
lthumb -3.67019 6.12332
rfemur -23.7177 -1.88399 11.9921
rtibia 16.3783
rfoot -7.18484 0.376614
rtoes 15.8354
lfemur 9.38791 3.1186 -34.4815
ltibia 10.1949
lfoot -16.7032 5.37725
ltoes -16.9558
977
root 23.9276 16.872 16.8478 246.408 -74.2494 -248.219
lowerback 9.31729 -1.86363 -11.8595
upperback 4.03212 -3.7276 -1.76927
thorax -0.341149 -2.08948 5.1166
lowerneck -22.9712 -4.53191 -2.36914
upperneck 26.2398 -7.25635 4.15166
head 12.8332 -2.98258 0.683202
rclavicle -1.13307e-014 7.95139e-015
rhumerus -63.9975 20.8927 -91.1381
rradius 43.8206
rwrist -7.7603
rhand -11.5242 -31.5079
rfingers 7.12502
rthumb 14.5155 -60.9801
lclavicle -1.13307e-014 7.95139e-015
lhumerus 8.46233 -31.4405 72.0799
lradius 51.4688
lwrist 1.84548
lhand -30.3308 -23.1589
lfingers 7.12502
lthumb -3.63693 6.78983
rfemur -23.6128 -4.51942 12.5339
rtibia 14.758
rfoot -6.51161 0.367304
rtoes 19.5646
lfemur 9.6714 3.56397 -34.8093
ltibia 11.7679
lfoot -17.8112 4.36291
ltoes -17.9718
978
root 23.674 16.8069 16.8593 248.851 -73.8264 -250.684
lowerback 8.90962 -2.12643 -12.3888
upperback 3.8942 -4.06763 -1.85112
thorax -0.166317 -2.26693 5.32374
lowerneck -22.9296 -4.60641 -2.90755
upperneck 26.3748 -7.31645 4.56851
head 12.9257 -3.00807 0.920856
rclavicle -1.78906e-015 -8.5875e-014
rhumerus -65.7513 20.6152 -91.1385
rradius 44.1302
rwrist -8.4278
rhand -11.4594 -31.479
rfingers 7.12502
rthumb 14.5779 -60.9467
lclavicle -1.78906e-015 -8.5875e-014
lhumerus 10.0776 -32.2085 70.4147
lradius 53.0782
lwrist 2.77479
lhand -30.1999 -22.6757
lfingers 7.12502
lthumb -3.51053 7.27512
rfemur -23.8397 -7.35072 12.8844
rtibia 13.7358
rfoot -4.44729 0.0654563
rtoes 21.7071
lfemur 9.65955 4.11204 -35.3921
ltibia 13.7168
lfoot -18.6929 3.55071
ltoes -18.2565
979
root 23.4191 16.7414 16.8674 250.231 -73.4784 -252.199
lowerback 8.62345 -2.32425 -12.767
upperback 3.83227 -4.31959 -1.8743
thorax 0.0026668 -2.40356 5.50445
lowerneck -22.89 -4.72759 -3.11779
upperneck 26.3185 -7.39928 4.545
head 12.906 -3.07019 0.932417
rclavicle -6.95746e-015 2.3059e-014
rhumerus -67.3045 20.2707 -90.9476
rradius 44.3595
rwrist -8.92289
rhand -11.3011 -31.5773
rfingers 7.12502
rthumb 14.7304 -61.0339
lclavicle -6.95746e-015 2.3059e-014
lhumerus 11.7232 -32.6114 68.9223
lradius 54.4613
lwrist 2.62318
lhand -30.5681 -22.2598
lfingers 7.12502
lthumb -3.86607 7.68485
rfemur -23.8713 -9.1098 13.2868
rtibia 13.4171
rfoot -3.8587 -1.92509
rtoes 27.0039
lfemur 9.69489 4.61642 -35.726
ltibia 15.8272
lfoot -19.3406 2.75572
ltoes -19.5418
980
root 23.1563 16.6742 16.882 250.389 -73.0442 -252.591
lowerback 8.32883 -2.47329 -13.0059
upperback 3.77005 -4.49564 -1.95685
thorax 0.146808 -2.49935 5.5394
lowerneck -22.1437 -4.76888 -3.63071
upperneck 25.6704 -7.38558 5.02605
head 12.5404 -3.07556 1.21879
rclavicle -5.02925e-014 -1.11319e-014
rhumerus -68.7669 19.9643 -90.7985
rradius 44.2752
rwrist -9.33594
rhand -11.3252 -31.414
rfingers 7.12502
rthumb 14.7072 -60.8723
lclavicle -5.02925e-014 -1.11319e-014
lhumerus 12.8854 -32.6168 67.7141
lradius 55.8395
lwrist 1.99473
lhand -30.7225 -22.3586
lfingers 7.12502
lthumb -4.01512 7.58331
rfemur -23.7129 -10.1646 13.6262
rtibia 13.2878
rfoot -1.80491 -3.86284
rtoes 29.3699
lfemur 9.73672 5.1486 -36.066
ltibia 18.2007
lfoot -19.7802 1.7189
ltoes -20.4411
981
root 22.8935 16.6062 16.8962 250.884 -72.3326 -253.377
lowerback 8.02242 -2.61852 -13.5114
upperback 3.76036 -4.68774 -2.16231
thorax 0.370458 -2.61645 5.58503
lowerneck -22.4881 -4.75541 -3.74003
upperneck 25.876 -7.34987 5.07786
head 12.697 -3.0536 1.25654
rclavicle 3.69739e-014 9.30312e-014
rhumerus -70.0483 19.5509 -90.571
rradius 44.0328
rwrist -9.50199
rhand -11.4536 -31.0192
rfingers 7.12502
rthumb 14.5835 -60.4865
lclavicle 3.69739e-014 9.30312e-014
lhumerus 13.6347 -31.8477 66.8278
lradius 57.3294
lwrist 1.62806
lhand -29.0415 -24.4363
lfingers 7.12502
lthumb -2.39181 5.53004
rfemur -23.4428 -11.1043 13.4786
rtibia 13.5831
rfoot -0.461531 -5.219
rtoes 28.7586
lfemur 9.65403 5.79632 -36.7097
ltibia 20.8844
lfoot -20.2687 1.09495
ltoes -25.176
982
root 22.6414 16.5444 16.9079 251.726 -71.47 -254.606
lowerback 7.89943 -2.74044 -14.2442
upperback 3.79899 -4.89576 -2.40674
thorax 0.566735 -2.74883 5.72058
lowerneck -22.6428 -4.81511 -3.99803
upperneck 25.9295 -7.41795 5.32037
head 12.7766 -3.07273 1.37688
rclavicle 5.60573e-014 9.54166e-015
rhumerus -71.1741 19.0019 -90.1353
rradius 43.9398
rwrist -9.47592
rhand -11.525 -30.9076
rfingers 7.12502
rthumb 14.5147 -60.3798
lclavicle 5.60573e-014 9.54166e-015
lhumerus 14.411 -32.0978 65.5966
lradius 59.1073
lwrist 2.00026
lhand -29.5915 -24.3511
lfingers 7.12502
lthumb -2.92297 5.60864
rfemur -23.0225 -12.1763 12.979
rtibia 14.2364
rfoot 0.48614 -6.02007
rtoes 30.938
lfemur 9.49328 6.48282 -37.447
ltibia 23.8573
lfoot -19.3579 -0.127813
ltoes -23.9654
983
root 22.3835 16.4661 16.8953 249.024 -71.9207 -252.593
lowerback 7.95397 -2.66714 -13.6614
upperback 3.9687 -4.74772 -2.24349
thorax 0.648554 -2.68084 5.56748
lowerneck -22.4136 -4.9966 -4.27063
upperneck 25.9931 -7.63736 5.42313
head 12.7859 -3.19074 1.42505
rclavicle -2.44505e-014 1.27222e-014
rhumerus -72.2491 18.2714 -89.6515
rradius 43.7987
rwrist -9.6075
rhand -11.6545 -31.2982
rfingers 7.12502
rthumb 14.3899 -60.7794
lclavicle -2.44505e-014 1.27222e-014
lhumerus 15.4282 -32.8133 63.9815
lradius 60.6869
lwrist 2.88194
lhand -30.2148 -24.703
lfingers 7.12502
lthumb -3.5249 5.24763
rfemur -21.7938 -11.1285 14.1633
rtibia 14.4647
rfoot 1.60265 -6.47023
rtoes 41.5639
lfemur 9.67014 7.61878 -35.8503
ltibia 27.0322
lfoot -19.1213 -1.55609
ltoes -26.9384
984
root 22.13 16.405 16.909 248.613 -71.0248 -252.82
lowerback 8.03556 -2.57629 -14.1877
upperback 4.04079 -4.69671 -2.55651
thorax 0.689216 -2.67508 5.52297
lowerneck -22.3599 -5.20409 -4.61101
upperneck 25.9836 -7.89489 5.66703
head 12.8152 -3.30774 1.52855
rclavicle -6.95746e-015 7.95139e-015
rhumerus -73.1988 17.3654 -89.0999
rradius 43.5951
rwrist -9.89174
rhand -11.9505 -31.8418
rfingers 7.12502
rthumb 14.1047 -61.3431
lclavicle -6.95746e-015 7.95139e-015
lhumerus 16.5326 -33.9565 62.0964
lradius 62.1591
lwrist 4.31436
lhand -30.9698 -25.0188
lfingers 7.12502
lthumb -4.25397 4.91851
rfemur -20.862 -11.2106 13.4361
rtibia 15.3567
rfoot 3.06318 -3.75094
rtoes 44.9711
lfemur 9.38342 8.83384 -36.0837
ltibia 30.7018
lfoot -17.5596 -3.82058
ltoes -24.8504
985
root 21.8807 16.3386 16.9162 247.132 -70.5569 -252.054
lowerback 8.41781 -2.42056 -14.2882
upperback 4.08215 -4.57682 -2.68788
thorax 0.493336 -2.61058 5.45972
lowerneck -22.6003 -5.31235 -5.00391
upperneck 26.2181 -8.02572 5.98553
head 13.0032 -3.3549 1.68795
rclavicle -3.45885e-014 -1.51076e-014
rhumerus -74.1797 16.4851 -88.4474
rradius 43.463
rwrist -10.3199
rhand -12.4365 -32.0957
rfingers 7.12502
rthumb 13.6363 -61.6291
lclavicle -3.45885e-014 -1.51076e-014
lhumerus 17.2173 -34.9741 60.615
lradius 63.8162
lwrist 5.57617
lhand -31.8172 -25.0293
lfingers 7.12502
lthumb -5.0722 4.88995
rfemur -19.7523 -10.123 13.1636
rtibia 16.387
rfoot 0.176542 -3.37403
rtoes 42.192
lfemur 9.12753 10.2072 -35.4339
ltibia 34.5414
lfoot -15.3986 -6.14474
ltoes -22.7751
986
root 21.6378 16.275 16.9224 244.988 -70.2199 -250.637
lowerback 8.99691 -2.2281 -14.1795
upperback 4.04103 -4.4273 -2.70826
thorax 0.0857842 -2.5088 5.41501
lowerneck -22.8897 -5.42378 -5.57892
upperneck 26.5675 -8.13489 6.39811
head 13.2637 -3.39716 1.9194
rclavicle -3.83654e-014 7.15625e-014
rhumerus -75.2087 15.7753 -87.7938
rradius 43.2788
rwrist -10.9198
rhand -12.9131 -32.2878
rfingers 7.12502
rthumb 13.177 -61.8514
lclavicle -3.83654e-014 7.15625e-014
lhumerus 17.4398 -35.751 59.6624
lradius 65.5477
lwrist 6.46141
lhand -32.4477 -25.2319
lfingers 7.12502
lthumb -5.68097 4.67195
rfemur -18.8252 -8.40779 13.1422
rtibia 17.6295
rfoot -2.70751 -4.28805
rtoes 38.8207
lfemur 8.69348 11.5447 -34.4317
ltibia 38.5455
lfoot -12.4525 -8.20706
ltoes -21.6117
